<?xml version="1.0" encoding="utf-8"?>
<!-- Generator: Adobe Illustrator 19.1.0, SVG Export Plug-In . SVG Version: 6.00 Build 0)  -->
<!DOCTYPE svg PUBLIC "-//W3C//DTD SVG 1.1//EN" "http://www.w3.org/Graphics/SVG/1.1/DTD/svg11.dtd">
<svg version="1.1" id="Layer_1" xmlns="http://www.w3.org/2000/svg" xmlns:xlink="http://www.w3.org/1999/xlink" x="0px" y="0px"
	 width="24px" height="23.4081px" viewBox="1489 -499.6316 24 23.4081" style="enable-background:new 1489 -499.6316 24 23.4081;"
	 xml:space="preserve">
<g>
	<path d="M1494.557-481.7183c0.9229,1.5622,2.326,1.4019,3.1381,1.1313c-0.8215,0.2537-2.1681,0.3721-3.095-1.1446
		c-0.1278-0.1917-0.4611-0.6263-0.9187-0.9166C1494.1171-482.3599,1494.4247-481.9413,1494.557-481.7183z M1498.0258-476.8222
		c0-0.2859-0.0117-1.2328-0.0164-2.2336c-2.6506,0.484-3.5684-0.452-3.924-1.1459c0.303,0.7155,1.2162,1.7098,3.9146,1.1702v2.2
		c0,0.223-0.1122,0.4996-0.4152,0.5868C1497.9016-476.3162,1498.0258-476.5841,1498.0258-476.8222z M1489-487.6316
		c0-6.6,5.4-12,12-12C1494.3743-499.6316,1489-494.2574,1489-487.6316z M1501.0023-493.8283
		c1.0195,0.0047,2.0461,0.1383,3.0048,0.4055c1.4331-0.9725,2.3636-1.2096,2.8596-1.2509
		c-0.4938,0.0222-1.4241,0.2386-2.8666,1.2421c-1-0.3-2-0.4-3-0.4s-2,0.1-3,0.4c-0.109-0.0711-0.201-0.1196-0.3042-0.1829
		c0.1031,0.0654,0.1952,0.1156,0.3041,0.1893C1498.9563-493.6924,1499.9828-493.8236,1501.0023-493.8283z M1510.2422-495.2827
		c1.6958,2.067,2.7015,4.7254,2.658,7.6511c0,5.2869-3.3838,9.7765-8.165,11.3868c0.0239-0.0032,0.0388,0.0042,0.0641-0.0007
		c4.7649-1.5891,8.2008-6.0867,8.2008-11.3859C1513-490.5394,1511.964-493.2054,1510.2422-495.2827z M1497.2-476.2316
		c0.1541,0.0257,0.2802,0.0169,0.3849-0.0132c-0.1041,0.0235-0.2286,0.0264-0.3771-0.0009
		c-4.7695-1.5867-8.2078-6.082-8.2078-11.3859C1489-482.3316,1492.4-477.8316,1497.2-476.2316z M1503.9742-476.822
		c0-0.3961,0.0164-1.6899,0.0164-3.293c0-1.1179-0.382-1.8468-0.8132-2.2195c2.6719-0.2977,5.4796-1.3125,5.4796-5.9227
		c0-1.3101-0.464-2.3812-1.2328-3.2203c0.0709-0.1727,0.2303-0.6523,0.2367-1.3334c-0.0117,0.7126-0.2021,1.2037-0.2607,1.3793
		c0.8,0.8,1.2,1.9,1.2,3.2c0,4.6-2.8,5.6-5.5,5.9c0.4,0.4,0.8,1.1,0.8,2.2v3.3c0,0.3,0.2,0.7,0.8,0.6
		c0.0118-0.004,0.0229-0.0092,0.0349-0.0132C1504.1841-476.1709,1503.9742-476.5165,1503.9742-476.822z M1507.6193-493.485
		c-0.0509-0.3565-0.1476-0.748-0.3146-1.1683c0,0-0.1414-0.0452-0.438-0.0204c0.2936-0.0132,0.4335,0.0421,0.4335,0.0421
		C1507.4707-494.2173,1507.5681-493.8342,1507.6193-493.485z M1501-499.6316c3.7179,0,7.0408,1.6929,9.2422,4.3489
		C1508.0544-497.9493,1504.7179-499.6316,1501-499.6316z M1498.9001-482.3316c-2.7-0.3-5.5-1.3-5.5-5.9c0-1.3,0.5-2.4,1.2-3.2
		c-0.1-0.3-0.5-1.5,0.1-3.2c0,0,0.9215-0.2537,2.9958,1.0172c-2.0697-1.3132-2.996-1.0412-2.996-1.0412
		c-0.6538,1.6523-0.2413,2.8734-0.1195,3.1781c-0.7664,0.8391-1.2351,1.9101-1.2351,3.2203c0,4.5984,2.8008,5.6297,5.4656,5.932
		c-0.3422,0.3-0.6515,0.8297-0.7617,1.6031c-0.097,0.0436-0.2195,0.0903-0.3541,0.1352c0.1536-0.0474,0.2949-0.0974,0.405-0.1446
		C1498.2001-481.5316,1498.5001-482.0316,1498.9001-482.3316z M1492.8-482.1317c-0.4-0.2-1-0.8,0-0.8
		c0.325,0,0.6226,0.1193,0.8813,0.2834c-0.2743-0.1815-0.5984-0.3121-0.9642-0.3076c-0.9938,0.0118-0.4008,0.5602,0.0211,0.7899
		c0.5156,0.2836,1.0992,1.3476,1.2281,1.6945c0.0306,0.0822,0.0699,0.1739,0.119,0.2697c-0.0339-0.08-0.0654-0.1595-0.0854-0.2299
		C1493.9-480.7316,1493.3-481.8316,1492.8-482.1317z"/>
</g>
</svg>
