<?xml version="1.0" encoding="utf-8"?>
<!-- Generator: Adobe Illustrator 19.1.0, SVG Export Plug-In . SVG Version: 6.00 Build 0)  -->
<!DOCTYPE svg PUBLIC "-//W3C//DTD SVG 1.1//EN" "http://www.w3.org/Graphics/SVG/1.1/DTD/svg11.dtd">
<svg version="1.1" id="Layer_1" xmlns="http://www.w3.org/2000/svg" xmlns:xlink="http://www.w3.org/1999/xlink" x="0px" y="0px"
	 width="36px" height="39.5px" viewBox="2 -3.5 36 39.5" style="enable-background:new 2 -3.5 36 39.5;" xml:space="preserve">
<style type="text/css">
	.chip_x002D_icon__body{fill:#FFFFFF;}
	.chip_x002D_icon__highlight{fill:#5A5B5E;}
	.chip_x002D_icon__background{fill:#262026;}
	.st0{fill:#5A5B5E;}
</style>
<circle class="chip_x002D_icon__background" cx="20.2" cy="16.3" r="16.8"/>
<path class="st0" d="M29.9,12.8c-1.1,0.2-1.4,0.8-1.5,1.6c-0.1,0.7,0.3,1.9,0.5,2.5c0.1,0.4,0.2,0.5,0.3,0.6c0-0.5,0-1.1,0.2-1.8
	c0-0.2,0-0.4,0-0.5c0-0.3,0.2-0.7,0.3-0.9c0.2-0.4,0.7-0.7,1.2-0.8c0.5-0.1,0.8,0.3,1.2,0c0,0,0.1-0.1,0.2-0.2c0,0-0.1,0-0.1,0
	C31.6,13.3,31,12.6,29.9,12.8z"/>
<path class="st0" d="M12.2,11.3c-0.4-0.6-1.1-1.4-1.4-2.5c-0.4-1.2-0.4-2.2-0.4-2.6c0-0.4,0.5-1.4,0.8-1.9c-0.7,0.6-1.1,1.6-1.1,2.9
	V8c0.4,1.6,1,3.7,2.1,4.4c0,0.1,0,0.2-0.1,0.2c0,0,0.1,0,0.1-0.1C12.5,12.3,12.6,11.9,12.2,11.3z"/>
<path class="chip_x002D_icon__highlight" d="M30.9,22.7c-0.9-0.3-1.3-0.7-1.9-1.2c-0.5-0.5-0.9-1.2-1.1-1.3
	c-0.2-0.2-0.3-0.4-0.5-0.9c-0.2-0.5-0.9-1.4-1.9-1.5c-1-0.1-2.8-0.6-3.9-0.9c-1.1-0.2-2.2-0.6-4.6,0c-2.4,0.6-2.4,0.3-2.9,0.7
	c-0.5,0.4-1.2,0.2-2.1,0.5c-0.9,0.4-0.8,0.1-1.7,1.2s-1.1,1.6-1.2,2.4c-0.1,0.5-0.1,0.9-0.1,1.2c0,0,0,0,0.1,0
	c0.3-0.5,0.1-0.6,0.3-1.2c0.2-0.6,0.6-1.3,0.9-1.9c0.6-0.2,1.3-0.5,1.9-0.7c0.4-0.2,0.8-0.2,1.1-0.4h0.1c0,0.5,0,1.1,0,1.7
	c0,0.2-0.2,0.4-0.2,0.7c0.3,1,1.6,1.9,2.2,2.6h1.6c0-0.3,0-0.5-0.1-0.7c-0.2,0-0.5-0.2-0.7,0c-0.5-0.1-0.9-1.4-1.3-1.7
	c0.1-0.4,0.5-0.5,0.7-0.7c0.4-0.5,0.9-1.2,1-1.9c1,0.4,2.4-0.2,3.2-0.4c0.6-0.2,1.3,0.1,1.8,0.2c0,1.8-0.6,3.4-0.5,5.2l0,0
	c0.4,0,1.3,0.1,1.5,0c0.5-0.3,0-0.9-0.5-0.9c0.1-0.4,0.4-0.8,0.6-1.2c0.4-0.9,0.8-1.7,1.3-2.5c0.5-0.1,1.2-0.4,1.8-0.2
	c1.1,0.5,0.7,1.1,1.4,1.8c0.8,0.8,1.8,1.6,2.8,2.2c0.4,0.3,0.9,0.5,1.2,0.9h1.9c0,0,0-0.1,0-0.1c-0.1,0-0.2,0-0.2,0
	S31.8,22.9,30.9,22.7z"/>
<path class="chip_x002D_icon__body" d="M33.4,22.9c-0.2-0.5-0.5-0.2-1-0.3c-0.1,0-0.1-0.1-0.2-0.1c-1.3-1.4-2.9-2.5-3-4.9
	c-0.1-0.1-0.2-0.2-0.3-0.6c-0.1-0.6-0.5-1.8-0.5-2.5c0.1-0.8,0.5-1.4,1.5-1.6c1.1-0.2,1.7,0.6,2.1,0.6c0,0,0.1,0,0.1-0.1
	c0.2-0.2,0.3-0.5,0.5-0.7c0-0.8-0.5-0.9-0.9-1.3c-0.2-0.3-0.2-0.6-0.5-0.7c-0.2-0.2-0.5-0.2-0.7-0.4c0-0.1,0-0.4,0-0.6
	c-0.1-0.3-0.2-0.5-0.3-0.8c-0.4,0.2-0.7,1.1-1.2,1.4c-0.3,0.2-0.5,0.1-0.8,0.2c-0.2,0.2-0.4,0.5-0.7,0.7c-0.5,0.4-1.3,0.7-2,0.9
	c-0.7,0.2-1.3-0.1-1.8-0.2c-0.5-0.2-1.1-0.1-1.7-0.2c-0.6,0-1.3-0.1-1.9-0.2c-0.8-0.2-1.9-0.1-2.7-0.2h-1c-0.4-0.1-1.2-0.2-1.7,0
	c-0.5,0.1-0.9,0.3-1.3,0.4c-0.9-1-2.5-3.4-1.6-5.5c0.1-0.2,0.2-0.4,0.3-0.5c0.1-0.2,0.2-0.4,0.2-0.6c0.2-0.4,0.5-0.3,0.8-0.2
	c0.3,0,0.7,0.3,0.9,0.5c0.2,0.2,0.4,0.1,1-0.2c0,0,0,0,0,0c0-0.1,0-0.2,0-0.3c-0.5-0.5-1-0.9-1.8-1.1c-0.6-0.2-1.3,0.1-1.6,0.3
	c-0.2,0.1-0.4,0.3-0.6,0.5c-0.3,0.5-0.8,1.6-0.8,1.9c0,0.4-0.1,1.4,0.4,2.6c0.4,1.2,1,1.9,1.4,2.5c0.4,0.6,0.3,1,0.1,1.3
	c0,0,0,0-0.1,0.1c-0.2,0.6-0.6,1.2-0.8,2c-0.2,0.8,0.2,1.6-0.1,2.2c-0.4,0.6-1.2,1-1.8,1.3c-0.2,0.7-0.4,1.5-0.7,2.2
	c-0.2,0.5-0.2,1.1-0.4,1.5c0,0.6,0.3,1,0.7,1.1l0,0c0-0.4,0-0.7,0.1-1.2c0.1-0.8,0.4-1.3,1.2-2.4c0.9-1.1,0.7-0.7,1.7-1.2
	c0.9-0.4,1.5-0.2,2.1-0.5c0.5-0.4,0.5-0.1,2.9-0.7c2.4-0.6,3.5-0.2,4.6,0c1.1,0.2,2.9,0.8,3.9,0.9c1,0.1,1.7,0.9,1.9,1.5
	c0.2,0.6,0.4,0.7,0.5,0.9s0.5,0.9,1.1,1.3c0.5,0.5,1,0.9,1.9,1.2c0.9,0.3,2.3,0.8,2.3,0.8s0.1,0,0.2,0C33.4,23.2,33.4,23,33.4,22.9z
	"/>
</svg>
