<?xml version="1.0" encoding="utf-8"?>
<!-- Generator: Adobe Illustrator 18.1.1, SVG Export Plug-In . SVG Version: 6.00 Build 0)  -->
<!DOCTYPE svg PUBLIC "-//W3C//DTD SVG 1.1//EN" "http://www.w3.org/Graphics/SVG/1.1/DTD/svg11.dtd">
<svg version="1.1" id="Layer_2" xmlns="http://www.w3.org/2000/svg" xmlns:xlink="http://www.w3.org/1999/xlink" x="0px" y="0px"
	 width="224px" height="105px" viewBox="0 0 224 105" style="enable-background:new 0 0 224 105;" xml:space="preserve">
<style type="text/css">
	.st0{fill:#FFFFFF;}
</style>
<rect width="54" height="67"/>
<rect x="52" y="13" width="118" height="54"/>
<rect x="169" y="13" width="54" height="66"/>
<rect x="44" class="st0" width="10" height="67"/>
<rect x="10" y="16" class="st0" width="42" height="10"/>
<rect x="10" y="23" class="st0" width="10" height="44"/>
<rect x="61" y="13" class="st0" width="10" height="54"/>
<rect x="95" y="13" class="st0" width="10" height="54"/>
<rect x="113" y="13" class="st0" width="10" height="54"/>
<rect x="151" y="13" class="st0" width="10" height="54"/>
<rect x="131" y="13" class="st0" width="10" height="54"/>
<rect x="204" y="13" class="st0" width="10" height="50"/>
<rect x="169" y="13" class="st0" width="10" height="66"/>
<rect x="10" y="57" class="st0" width="44" height="10"/>
<rect x="61" y="57" class="st0" width="44" height="10"/>
<rect x="117" y="13" class="st0" width="44" height="10"/>
<rect x="169" y="13" class="st0" width="44" height="10"/>
<rect x="170" y="53" class="st0" width="44" height="10"/>
</svg>
