<?xml version="1.0" encoding="utf-8"?>
<!-- Generator: Adobe Illustrator 18.1.1, SVG Export Plug-In . SVG Version: 6.00 Build 0)  -->
<!DOCTYPE svg PUBLIC "-//W3C//DTD SVG 1.1//EN" "http://www.w3.org/Graphics/SVG/1.1/DTD/svg11.dtd">
<svg version="1.1" id="Layer_2" xmlns="http://www.w3.org/2000/svg" xmlns:xlink="http://www.w3.org/1999/xlink" x="0px" y="0px"
	 width="224px" height="105px" viewBox="0 0 224 105" style="enable-background:new 0 0 224 105;" xml:space="preserve">
<style type="text/css">
	.st0{fill:#FFFFFF;}
</style>
<rect width="53.8" height="67"/>
<rect x="52" y="13" width="117.8" height="54"/>
<rect x="169.2" y="13.1" width="54.8" height="66.5"/>
<rect x="44.4" class="st0" width="9.4" height="67"/>
<rect x="10.4" y="16.2" class="st0" width="41.6" height="9.6"/>
<rect x="10.4" y="23" class="st0" width="9.6" height="44"/>
<rect x="61.8" y="13" class="st0" width="9.6" height="54"/>
<rect x="95.5" y="12.9" class="st0" width="9.6" height="54.1"/>
<rect x="113" y="13" class="st0" width="9.6" height="54"/>
<rect x="151" y="13.1" class="st0" width="9.6" height="53.9"/>
<rect x="131.9" y="13.1" class="st0" width="9.6" height="53.9"/>
<rect x="204.8" y="13.1" class="st0" width="9.6" height="49.8"/>
<rect x="169.1" y="13.1" class="st0" width="9.6" height="66.6"/>
<rect x="10.4" y="57" class="st0" width="43.4" height="10"/>
<rect x="61.8" y="57" class="st0" width="43.4" height="10"/>
<rect x="117.2" y="13" class="st0" width="43.4" height="10"/>
<rect x="171" y="13" class="st0" width="43.4" height="10"/>
<rect x="171" y="52.8" class="st0" width="43.4" height="10"/>
</svg>
