<?xml version="1.0" encoding="utf-8"?>
<!-- Generator: Adobe Illustrator 18.1.1, SVG Export Plug-In . SVG Version: 6.00 Build 0)  -->
<!DOCTYPE svg PUBLIC "-//W3C//DTD SVG 1.1//EN" "http://www.w3.org/Graphics/SVG/1.1/DTD/svg11.dtd">
<svg version="1.1" id="Layer_2" xmlns="http://www.w3.org/2000/svg" xmlns:xlink="http://www.w3.org/1999/xlink" x="0px" y="0px"
	 width="224px" height="105px" viewBox="-193 344 224 105" style="enable-background:new -193 344 224 105;" xml:space="preserve">
<style type="text/css">
	.main_x002D_color{fill:#FFFFFF;}
	.background_x002D_color{fill:#282828;}
</style>
<polygon class="background_x002D_color" points="-23,357 -24,357 -139,357 -139,344 -193,344 -193,411 -141,411 -139,411 -24,411 
	-24,423 30,423 30,357 "/>
<g>
	<path class="main_x002D_color" d="M-149,344v16h-34v7v3v31v10h10h24h10v-10v-57H-149z M-173,401v-31h24v31H-173z"/>
	<polygon class="main_x002D_color" points="-98,357 -98,401 -122,401 -122,357 -132,357 -132,401 -132,411 -122,411 -98,411 
		-88,411 -88,401 -88,357 	"/>
	<polygon class="main_x002D_color" points="-42,357 -52,357 -62,357 -70,357 -76,357 -80,357 -80,411 -70,411 -70,367 -62,367 
		-62,411 -52,411 -52,367 -42,367 -42,411 -32,411 -32,367 -32,357 	"/>
	<path class="main_x002D_color" d="M20,357h-9h-25h-10v10v56h10v-16h25h10v-10v-40H20z M-14,397v-30h25v30H-14z"/>
</g>
</svg>
