<?xml version="1.0" encoding="utf-8"?>
<!-- Generator: Adobe Illustrator 19.1.0, SVG Export Plug-In . SVG Version: 6.00 Build 0)  -->
<!DOCTYPE svg PUBLIC "-//W3C//DTD SVG 1.1//EN" "http://www.w3.org/Graphics/SVG/1.1/DTD/svg11.dtd">
<svg version="1.1" id="Layer_1" xmlns="http://www.w3.org/2000/svg" xmlns:xlink="http://www.w3.org/1999/xlink" x="0px" y="0px"
	 width="32px" height="32px" viewBox="0 0 32 32" style="enable-background:new 0 0 32 32;" xml:space="preserve">
<symbol  id="New_Symbol_12" viewBox="-25 -32.5 50 65">
	<g>
		<path style="fill:#E6E6E6;" d="M5,7.5L4.9,7.6C4.9,7.5,5,7.5,5,7.5z"/>
		<linearGradient id="SVGID_1_" gradientUnits="userSpaceOnUse" x1="8.75" y1="11.25" x2="-11.25" y2="31.25">
			<stop  offset="0" style="stop-color:#F38687"/>
			<stop  offset="1" style="stop-color:#F5CD98"/>
		</linearGradient>
		<path style="fill:url(#SVGID_1_);" d="M5,7.5l5,10l-20,15c0,0,13.5-23.1,14.9-24.9L5,7.5z"/>
		<linearGradient id="SVGID_2_" gradientUnits="userSpaceOnUse" x1="-13.75" y1="-16.25" x2="-31.25" y2="1.25">
			<stop  offset="0" style="stop-color:#FC9161"/>
			<stop  offset="1" style="stop-color:#FFCD74"/>
		</linearGradient>
		<polygon style="fill:url(#SVGID_2_);" points="-25,-7.5 -20,-22.5 -20,-7.5 -25,7.5 		"/>
		<linearGradient id="SVGID_3_" gradientUnits="userSpaceOnUse" x1="7.3763" y1="10.1237" x2="-12.5" y2="30">
			<stop  offset="0" style="stop-color:#FACD8E"/>
			<stop  offset="1" style="stop-color:#F1DFBC"/>
		</linearGradient>
		<path style="fill:url(#SVGID_3_);" d="M-10,32.5v-10L4.9,7.6C3.5,9.4-10,32.5-10,32.5z"/>
		<linearGradient id="SVGID_4_" gradientUnits="userSpaceOnUse" x1="-11.25" y1="1.25" x2="-23.75" y2="13.75">
			<stop  offset="0" style="stop-color:#F2BC6A"/>
			<stop  offset="1" style="stop-color:#FAD68E"/>
		</linearGradient>
		<polygon style="fill:url(#SVGID_4_);" points="-15,22.5 -25,7.5 -20,-7.5 -15,12.5 		"/>
		<linearGradient id="SVGID_5_" gradientUnits="userSpaceOnUse" x1="-12.5054" y1="-7.5" x2="-12.5054" y2="12.5">
			<stop  offset="0" style="stop-color:#F57A5A"/>
			<stop  offset="1" style="stop-color:#F6BC88"/>
		</linearGradient>
		<polygon style="fill:url(#SVGID_5_);" points="-20,-7.5 -5,-2.5 -15,12.5 		"/>
		<linearGradient id="SVGID_6_" gradientUnits="userSpaceOnUse" x1="1.25" y1="3.75" x2="-13.75" y2="18.75">
			<stop  offset="0" style="stop-color:#F87B7A"/>
			<stop  offset="1" style="stop-color:#FEAC8E"/>
		</linearGradient>
		<path style="fill:url(#SVGID_6_);" d="M4.9,7.6L-10,22.5l-5-10l20-5C5,7.5,4.9,7.5,4.9,7.6z"/>
		<linearGradient id="SVGID_7_" gradientUnits="userSpaceOnUse" x1="23.75" y1="6.25" x2="6.25" y2="23.75">
			<stop  offset="0" style="stop-color:#F1485F"/>
			<stop  offset="1" style="stop-color:#EF6D83"/>
		</linearGradient>
		<polygon style="fill:url(#SVGID_7_);" points="25,12.5 10,27.5 20,2.5 		"/>
		<linearGradient id="SVGID_8_" gradientUnits="userSpaceOnUse" x1="15" y1="-7.5" x2="15" y2="27.5">
			<stop  offset="0" style="stop-color:#F47759"/>
			<stop  offset="1" style="stop-color:#F4866D"/>
		</linearGradient>
		<polygon style="fill:url(#SVGID_8_);" points="10,27.5 15,7.5 20,-7.5 20,2.5 		"/>
		<linearGradient id="SVGID_9_" gradientUnits="userSpaceOnUse" x1="-4.9961" y1="-2.5" x2="-4.9961" y2="12.5">
			<stop  offset="0" style="stop-color:#F29D83"/>
			<stop  offset="1" style="stop-color:#F0D8A4"/>
		</linearGradient>
		<path style="fill:url(#SVGID_9_);" d="M5,7.5l-20,5l10-15C-5-2.5,5.3,7.7,5,7.5z"/>
		<linearGradient id="SVGID_10_" gradientUnits="userSpaceOnUse" x1="30" y1="-12.5" x2="15" y2="2.5">
			<stop  offset="0" style="stop-color:#E23B7A"/>
			<stop  offset="1" style="stop-color:#EC5D74"/>
		</linearGradient>
		<polygon style="fill:url(#SVGID_10_);" points="20,2.5 20,-7.5 20,-22.5 25,-7.5 25,12.5 		"/>
		<linearGradient id="SVGID_11_" gradientUnits="userSpaceOnUse" x1="5" y1="-2.5" x2="-2.5" y2="5">
			<stop  offset="0" style="stop-color:#F17B5E"/>
			<stop  offset="1" style="stop-color:#F5926B"/>
		</linearGradient>
		<path style="fill:url(#SVGID_11_);" d="M10,17.5l-5-10c0.3,0.2-10-10-10-10l-5-10l25,20L10,17.5z"/>
		<linearGradient id="SVGID_12_" gradientUnits="userSpaceOnUse" x1="13.75" y1="-13.75" x2="1.25" y2="-1.25">
			<stop  offset="0" style="stop-color:#F15678"/>
			<stop  offset="1" style="stop-color:#F994A5"/>
		</linearGradient>
		<polygon style="fill:url(#SVGID_12_);" points="-10,-12.5 20,-7.5 15,7.5 		"/>
	</g>
	<linearGradient id="SVGID_13_" gradientUnits="userSpaceOnUse" x1="-7.5" y1="-30" x2="-17.5" y2="-20">
		<stop  offset="0" style="stop-color:#FC9161"/>
		<stop  offset="1" style="stop-color:#FFCD74"/>
	</linearGradient>
	<polygon style="fill:url(#SVGID_13_);" points="-15,-17.5 -10,-32.5 -10,-27.5 	"/>
	<linearGradient id="SVGID_14_" gradientUnits="userSpaceOnUse" x1="-7.5" y1="-30" x2="-10" y2="-27.5">
		<stop  offset="0" style="stop-color:#F15678"/>
		<stop  offset="1" style="stop-color:#F994A5"/>
	</linearGradient>
	<polygon style="fill:url(#SVGID_14_);" points="-10,-32.5 -5,-27.5 -10,-27.5 	"/>
	<linearGradient id="SVGID_15_" gradientUnits="userSpaceOnUse" x1="-6.25" y1="-28.75" x2="-16.25" y2="-18.75">
		<stop  offset="0" style="stop-color:#F38687"/>
		<stop  offset="1" style="stop-color:#F5CD98"/>
	</linearGradient>
	<polygon style="fill:url(#SVGID_15_);" points="-15,-17.5 -5,-27.5 -10,-27.5 	"/>
	<linearGradient id="SVGID_16_" gradientUnits="userSpaceOnUse" x1="11.25" y1="-31.25" x2="6.25" y2="-26.25">
		<stop  offset="0" style="stop-color:#F15678"/>
		<stop  offset="1" style="stop-color:#F994A5"/>
	</linearGradient>
	<polygon style="fill:url(#SVGID_16_);" points="5,-27.5 10,-32.5 10,-27.5 	"/>
	<linearGradient id="SVGID_17_" gradientUnits="userSpaceOnUse" x1="15" y1="-27.5" x2="10" y2="-22.5">
		<stop  offset="0" style="stop-color:#E23B7A"/>
		<stop  offset="1" style="stop-color:#EC5D74"/>
	</linearGradient>
	<polygon style="fill:url(#SVGID_17_);" points="15,-17.5 10,-32.5 10,-27.5 	"/>
	<linearGradient id="SVGID_18_" gradientUnits="userSpaceOnUse" x1="12.5" y1="-25" x2="10" y2="-22.5">
		<stop  offset="0" style="stop-color:#F47759"/>
		<stop  offset="1" style="stop-color:#F4866D"/>
	</linearGradient>
	<polygon style="fill:url(#SVGID_18_);" points="5,-27.5 15,-17.5 10,-27.5 	"/>
</symbol>
<use xlink:href="#New_Symbol_12"  width="50" height="65" x="-25" y="-32.5" transform="matrix(0.426 0 0 -0.426 16.4615 14.0312)" style="overflow:visible;"/>
</svg>
