<?xml version="1.0" encoding="utf-8"?>
<!-- Generator: Adobe Illustrator 19.1.0, SVG Export Plug-In . SVG Version: 6.00 Build 0)  -->
<!DOCTYPE svg PUBLIC "-//W3C//DTD SVG 1.1//EN" "http://www.w3.org/Graphics/SVG/1.1/DTD/svg11.dtd">
<svg version="1.1" id="Layer_1" xmlns="http://www.w3.org/2000/svg" xmlns:xlink="http://www.w3.org/1999/xlink" x="0px" y="0px"
	 width="98.5px" height="96.5px" viewBox="1451.7 -536.1 98.5 96.5" style="enable-background:new 1451.7 -536.1 98.5 96.5;"
	 xml:space="preserve">
<path style="fill:#FFFFFF;" d="M1501.2-536.1c-27.2,0-49.4,22.2-49.4,49.4c0,21.8,14,40.4,33.8,47c2.5,0.4,3.3-1.2,3.3-2.5
	c0-1.2,0-4.9,0-9.1c-12.4,2.5-15.7-2.9-16.5-5.8c-0.4-1.2-2.9-5.8-4.9-7c-1.6-0.8-4.1-3.3,0-3.3c3.7,0,6.6,3.7,7.4,4.9
	c4.5,7.4,11.5,5.4,14.4,4.1c0.4-3.3,1.6-5.4,3.3-6.6c-11.1-1.2-22.7-5.4-22.7-24.3c0-5.4,2.1-9.9,4.9-13.2
	c-0.4-1.2-2.1-6.2,0.4-13.2c0,0,4.1-1.2,13.6,4.9c4.1-1.2,8.2-1.6,12.4-1.6c4.1,0,8.2,0.4,12.4,1.6c9.5-6.6,13.6-4.9,13.6-4.9
	c2.9,7,0.8,11.9,0.4,13.2c3.3,3.3,4.9,7.8,4.9,13.2c0,18.9-11.5,23.1-22.7,24.3c1.6,1.6,3.3,4.5,3.3,9.1c0,6.6,0,11.9,0,13.6
	c0,1.2,0.8,2.9,3.3,2.5c19.8-6.6,33.8-25.1,33.8-47C1550.6-514.3,1528.3-536.1,1501.2-536.1z"/>
<path style="fill:#FFFFFF;" d="M1499.7-469.9c-0.1,0-0.3,0-0.4-0.1c-0.2-0.2-0.2-0.5,0-0.7c0.1-0.1,1.8-1.8,3.5-1.8c0,0,0,0,0.1,0
	c1.8,0,3.2,1.6,3.2,1.7c0.2,0.2,0.2,0.5-0.1,0.7c-0.2,0.2-0.5,0.2-0.7-0.1c0,0-1.2-1.4-2.5-1.3c-1.4,0-2.8,1.5-2.8,1.5
	C1499.9-469.9,1499.8-469.9,1499.7-469.9z"/>
<ellipse style="fill:#FFFFFF;" cx="1489.1" cy="-481.3" rx="3.3" ry="4.7"/>
<ellipse style="fill:#FFFFFF;" cx="1515.1" cy="-481.3" rx="3.3" ry="4.7"/>
<circle style="fill:#FFFFFF;" cx="1502.2" cy="-476" r="1.3"/>
<path style="fill:#FFFFFF;" d="M1488.8-474.5c-2.7,0-5-3.1-5-6.9s2.2-6.9,5-6.9c2.7,0,5,3.1,5,6.9S1491.6-474.5,1488.8-474.5z
	 M1488.8-487.7c-2.5,0-4.5,2.9-4.5,6.4s2,6.4,4.5,6.4c2.5,0,4.5-2.9,4.5-6.4S1491.3-487.7,1488.8-487.7z"/>
<path style="fill:#FFFFFF;" d="M1515.1-474.5c-2.7,0-5-3.1-5-6.9s2.2-6.9,5-6.9s5,3.1,5,6.9S1517.8-474.5,1515.1-474.5z
	 M1515.1-487.7c-2.5,0-4.5,2.9-4.5,6.4s2,6.4,4.5,6.4s4.5-2.9,4.5-6.4S1517.5-487.7,1515.1-487.7z"/>
</svg>
