<?xml version="1.0" encoding="utf-8"?>
<!-- Generator: Adobe Illustrator 19.1.0, SVG Export Plug-In . SVG Version: 6.00 Build 0)  -->
<!DOCTYPE svg PUBLIC "-//W3C//DTD SVG 1.1//EN" "http://www.w3.org/Graphics/SVG/1.1/DTD/svg11.dtd">
<svg version="1.1" id="Layer_1" xmlns="http://www.w3.org/2000/svg" xmlns:xlink="http://www.w3.org/1999/xlink" x="0px" y="0px"
	 width="36px" height="39.5px" viewBox="1010 -498 36 39.5" style="enable-background:new 1010 -498 36 39.5;" xml:space="preserve"
	>
<title>Веб-стандарты</title>
<path d="M1044-476.3c-1.1,0-2-0.9-2-2v-8.9c0-1.1,0.9-2,2-2s2,0.9,2,2v8.9C1046-477.2,1045.1-476.3,1044-476.3z"/>
<path d="M1044-485.1c-0.3,0-0.7-0.1-1-0.3l-16-8.9c-1-0.5-1.3-1.8-0.8-2.7c0.5-1,1.8-1.3,2.7-0.8l16,8.9c1,0.5,1.3,1.8,0.8,2.7
	C1045.4-485.5,1044.7-485.1,1044-485.1z"/>
<path d="M1012-485.1c-0.7,0-1.4-0.4-1.8-1c-0.5-1-0.2-2.2,0.8-2.7l16-8.9c1-0.5,2.2-0.2,2.7,0.8c0.5,1,0.2,2.2-0.8,2.7l-16,8.9
	C1012.7-485.2,1012.3-485.1,1012-485.1z"/>
<path d="M1028-476.3c-0.3,0-0.7-0.1-1-0.3l-16-8.9c-1-0.5-1.3-1.8-0.8-2.7c0.5-1,1.8-1.3,2.7-0.8l16,8.9c1,0.5,1.3,1.8,0.8,2.7
	C1029.4-476.6,1028.7-476.3,1028-476.3z"/>
<path d="M1028-458.5c-1.1,0-2-0.9-2-2v-17.7c0-1.1,0.9-2,2-2s2,0.9,2,2v17.7C1030-459.4,1029.1-458.5,1028-458.5z"/>
<path d="M1028-458.5c-0.7,0-1.4-0.4-1.8-1c-0.5-1-0.2-2.2,0.8-2.7l16-8.9c1-0.5,2.2-0.2,2.7,0.8c0.5,1,0.2,2.2-0.8,2.7l-16,8.9
	C1028.7-458.6,1028.3-458.5,1028-458.5z"/>
<path d="M1028-458.5c-0.3,0-0.7-0.1-1-0.3l-16-8.9c-1-0.5-1.3-1.8-0.8-2.7c0.5-1,1.8-1.3,2.7-0.8l16,8.9c1,0.5,1.3,1.8,0.8,2.7
	C1029.4-458.9,1028.7-458.5,1028-458.5z"/>
<path d="M1012-467.4c-1.1,0-2-0.9-2-2v-8.9c0-1.1,0.9-2,2-2s2,0.9,2,2v8.9C1014-468.3,1013.1-467.4,1012-467.4z"/>
</svg>
